<svg width="32" height="32" viewBox="0 0 32 32" fill="none" xmlns="http://www.w3.org/2000/svg">
<g clip-path="url(#clip0_161_173)">
<path d="M16 18.5C17.3807 18.5 18.5 17.3807 18.5 16C18.5 14.6193 17.3807 13.5 16 13.5C14.6193 13.5 13.5 14.6193 13.5 16C13.5 17.3807 14.6193 18.5 16 18.5Z" stroke="#F2F2F2" stroke-width="2" stroke-linecap="round" stroke-linejoin="round"/>
<path d="M22.1666 18.5C22.0557 18.7514 22.0226 19.0302 22.0716 19.3005C22.1207 19.5708 22.2495 19.8203 22.4416 20.0167L22.4916 20.0667C22.6466 20.2215 22.7695 20.4053 22.8534 20.6076C22.9373 20.8099 22.9805 21.0268 22.9805 21.2458C22.9805 21.4649 22.9373 21.6817 22.8534 21.8841C22.7695 22.0864 22.6466 22.2702 22.4916 22.425C22.3369 22.58 22.153 22.7029 21.9507 22.7868C21.7484 22.8706 21.5315 22.9138 21.3125 22.9138C21.0935 22.9138 20.8766 22.8706 20.6742 22.7868C20.4719 22.7029 20.2881 22.58 20.1333 22.425L20.0833 22.375C19.8869 22.1829 19.6375 22.054 19.3671 22.005C19.0968 21.956 18.818 21.9891 18.5666 22.1C18.3202 22.2056 18.11 22.381 17.9619 22.6046C17.8138 22.8282 17.7344 23.0902 17.7333 23.3583V23.5C17.7333 23.942 17.5577 24.366 17.2452 24.6785C16.9326 24.9911 16.5087 25.1667 16.0666 25.1667C15.6246 25.1667 15.2007 24.9911 14.8881 24.6785C14.5756 24.366 14.4 23.942 14.4 23.5V23.425C14.3935 23.1492 14.3042 22.8817 14.1437 22.6573C13.9832 22.4328 13.7589 22.2619 13.5 22.1667C13.2486 22.0557 12.9698 22.0227 12.6995 22.0717C12.4292 22.1207 12.1797 22.2496 11.9833 22.4417L11.9333 22.4917C11.7785 22.6466 11.5947 22.7696 11.3924 22.8534C11.19 22.9373 10.9732 22.9805 10.7541 22.9805C10.5351 22.9805 10.3182 22.9373 10.1159 22.8534C9.91358 22.7696 9.72977 22.6466 9.57498 22.4917C9.42002 22.3369 9.29709 22.1531 9.21321 21.9507C9.12934 21.7484 9.08617 21.5315 9.08617 21.3125C9.08617 21.0935 9.12934 20.8766 9.21321 20.6743C9.29709 20.4719 9.42002 20.2881 9.57498 20.1333L9.62498 20.0833C9.81709 19.8869 9.94597 19.6375 9.99498 19.3672C10.044 19.0968 10.0109 18.818 9.89998 18.5667C9.79434 18.3202 9.61894 18.11 9.39537 17.9619C9.17179 17.8139 8.9098 17.7344 8.64165 17.7333H8.49998C8.05795 17.7333 7.63403 17.5577 7.32147 17.2452C7.00891 16.9326 6.83331 16.5087 6.83331 16.0667C6.83331 15.6246 7.00891 15.2007 7.32147 14.8882C7.63403 14.5756 8.05795 14.4 8.49998 14.4H8.57498C8.85081 14.3936 9.11832 14.3043 9.34273 14.1438C9.56714 13.9833 9.73808 13.759 9.83331 13.5C9.94424 13.2487 9.97733 12.9698 9.92832 12.6995C9.8793 12.4292 9.75043 12.1797 9.55831 11.9833L9.50831 11.9333C9.35335 11.7786 9.23042 11.5947 9.14655 11.3924C9.06267 11.1901 9.0195 10.9732 9.0195 10.7542C9.0195 10.5352 9.06267 10.3183 9.14655 10.1159C9.23042 9.91361 9.35335 9.7298 9.50831 9.57501C9.6631 9.42005 9.84692 9.29712 10.0492 9.21324C10.2516 9.12937 10.4685 9.0862 10.6875 9.0862C10.9065 9.0862 11.1234 9.12937 11.3257 9.21324C11.528 9.29712 11.7119 9.42005 11.8666 9.57501L11.9166 9.62501C12.113 9.81712 12.3625 9.946 12.6328 9.99501C12.9032 10.044 13.182 10.0109 13.4333 9.90001H13.5C13.7465 9.79437 13.9567 9.61897 14.1047 9.3954C14.2528 9.17182 14.3322 8.90983 14.3333 8.64168V8.50001C14.3333 8.05798 14.5089 7.63406 14.8215 7.3215C15.134 7.00894 15.558 6.83334 16 6.83334C16.442 6.83334 16.8659 7.00894 17.1785 7.3215C17.4911 7.63406 17.6666 8.05798 17.6666 8.50001V8.57501C17.6677 8.84317 17.7472 9.10516 17.8952 9.32873C18.0433 9.55231 18.2535 9.72771 18.5 9.83334C18.7513 9.94427 19.0301 9.97736 19.3005 9.92835C19.5708 9.87933 19.8202 9.75046 20.0166 9.55834L20.0666 9.50834C20.2214 9.35338 20.4052 9.23045 20.6076 9.14658C20.8099 9.0627 21.0268 9.01953 21.2458 9.01953C21.4648 9.01953 21.6817 9.0627 21.884 9.14658C22.0864 9.23045 22.2702 9.35338 22.425 9.50834C22.5799 9.66313 22.7029 9.84695 22.7867 10.0493C22.8706 10.2516 22.9138 10.4685 22.9138 10.6875C22.9138 10.9065 22.8706 11.1234 22.7867 11.3257C22.7029 11.5281 22.5799 11.7119 22.425 11.8667L22.375 11.9167C22.1829 12.1131 22.054 12.3625 22.005 12.6329C21.956 12.9032 21.989 13.182 22.1 13.4333V13.5C22.2056 13.7465 22.381 13.9567 22.6046 14.1048C22.8282 14.2528 23.0902 14.3323 23.3583 14.3333H23.5C23.942 14.3333 24.3659 14.5089 24.6785 14.8215C24.991 15.1341 25.1666 15.558 25.1666 16C25.1666 16.442 24.991 16.866 24.6785 17.1785C24.3659 17.4911 23.942 17.6667 23.5 17.6667H23.425C23.1568 17.6677 22.8948 17.7472 22.6713 17.8953C22.4477 18.0433 22.2723 18.2535 22.1666 18.5V18.5Z" stroke="#F2F2F2" stroke-width="2" stroke-linecap="round" stroke-linejoin="round"/>
</g>
<defs>
<clipPath id="clip0_161_173">
<rect width="20" height="20" fill="white" transform="translate(6 6)"/>
</clipPath>
</defs>
</svg>
