<svg width="25" height="25" viewBox="0 0 25 25" fill="none" xmlns="http://www.w3.org/2000/svg">
<g filter="url(#filter0_d_320_141)">
<path d="M12.4862 3.13334C9.13972 3.13334 6.42833 5.86917 6.42833 9.19124C6.42833 12.5377 9.13972 15.2491 12.4862 15.2491C15.8083 15.2491 18.5441 12.5377 18.5441 9.19124C18.5441 5.86917 15.8083 3.13334 12.4862 3.13334ZM15.6617 6.01573C17.2495 7.62791 17.3716 10.0706 16.1503 11.7805L9.89696 5.52719C11.6069 4.30584 14.0496 4.42797 15.6617 6.01573ZM9.28629 12.3912C7.69853 10.779 7.5764 8.3363 8.79775 6.62641L15.0511 12.8797C13.3412 14.1011 10.8985 13.9789 9.28629 12.3912Z" fill="#FCFCFC"/>
<path d="M15.6617 6.01573L15.8845 5.79631L15.8811 5.79296L15.6617 6.01573ZM16.1503 11.7805L15.9292 12.0016L16.1902 12.2626L16.4047 11.9622L16.1503 11.7805ZM9.89696 5.52719L9.71523 5.27276L9.41489 5.48729L9.67587 5.74828L9.89696 5.52719ZM9.28629 12.3912L9.06349 12.6106L9.06689 12.6139L9.28629 12.3912ZM8.79775 6.62641L9.01883 6.40532L8.75785 6.14433L8.54332 6.44467L8.79775 6.62641ZM15.0511 12.8797L15.2328 13.1341L15.5331 12.9196L15.2721 12.6586L15.0511 12.8797ZM12.4862 2.82068C8.96622 2.82068 6.11566 5.69731 6.11566 9.19124H6.74099C6.74099 6.04103 9.31322 3.44601 12.4862 3.44601V2.82068ZM6.11566 9.19124C6.11566 12.7104 8.96704 15.5618 12.4862 15.5618V14.9365C9.3124 14.9365 6.74099 12.3651 6.74099 9.19124H6.11566ZM12.4862 15.5618C15.9802 15.5618 18.8568 12.7112 18.8568 9.19124H18.2315C18.2315 12.3642 15.6364 14.9365 12.4862 14.9365V15.5618ZM18.8568 9.19124C18.8568 5.69649 15.981 2.82068 12.4862 2.82068V3.44601C15.6356 3.44601 18.2315 6.04185 18.2315 9.19124H18.8568ZM15.439 6.23512C16.9184 7.73731 17.0303 10.0105 15.8958 11.5988L16.4047 11.9622C17.7129 10.1307 17.5806 7.51851 15.8845 5.79634L15.439 6.23512ZM16.3714 11.5594L10.118 5.3061L9.67587 5.74828L15.9292 12.0016L16.3714 11.5594ZM10.0787 5.78162C11.6669 4.64716 13.9402 4.75907 15.4423 6.2385L15.8811 5.79296C14.159 4.09688 11.5468 3.96452 9.71523 5.27276L10.0787 5.78162ZM9.50905 12.1718C8.02963 10.6696 7.91771 8.39638 9.05217 6.80814L8.54332 6.44467C7.23508 8.27621 7.36743 10.8884 9.06352 12.6106L9.50905 12.1718ZM8.57666 6.84749L14.83 13.1008L15.2721 12.6586L9.01883 6.40532L8.57666 6.84749ZM14.8693 12.6253C13.2811 13.7598 11.0079 13.6478 9.50568 12.1684L9.06689 12.6139C10.7891 14.31 13.4013 14.4424 15.2328 13.1341L14.8693 12.6253Z" fill="#707070"/>
</g>
<defs>
<filter id="filter0_d_320_141" x="0.428223" y="0.133362" width="24.116" height="24.1158" filterUnits="userSpaceOnUse" color-interpolation-filters="sRGB">
<feFlood flood-opacity="0" result="BackgroundImageFix"/>
<feColorMatrix in="SourceAlpha" type="matrix" values="0 0 0 0 0 0 0 0 0 0 0 0 0 0 0 0 0 0 127 0" result="hardAlpha"/>
<feOffset dy="3"/>
<feGaussianBlur stdDeviation="3"/>
<feColorMatrix type="matrix" values="0 0 0 0 0.2 0 0 0 0 0.2 0 0 0 0 0.2 0 0 0 0.45 0"/>
<feBlend mode="normal" in2="BackgroundImageFix" result="effect1_dropShadow_320_141"/>
<feBlend mode="normal" in="SourceGraphic" in2="effect1_dropShadow_320_141" result="shape"/>
</filter>
</defs>
</svg>
